# Blender 4.3.2
# www.blender.org
mtllib dart1.mtl
o Cylinder
v 0.000000 0.017500 0.069000
v 0.000000 0.017500 0.021374
v -0.002193 0.017362 0.069000
v -0.002193 0.017362 0.021374
v -0.004352 0.016950 0.069000
v -0.004352 0.016950 0.021374
v -0.006442 0.016271 0.069000
v -0.006442 0.016271 0.021374
v -0.008431 0.015335 0.069000
v -0.008431 0.015335 0.021374
v -0.010286 0.014158 0.069000
v -0.010286 0.014158 0.021374
v -0.011980 0.012757 0.069000
v -0.011980 0.012757 0.021374
v -0.013484 0.011155 0.069000
v -0.013484 0.011155 0.021374
v -0.014776 0.009377 0.069000
v -0.014776 0.009377 0.021374
v -0.015834 0.007451 0.069000
v -0.015834 0.007451 0.021374
v -0.016643 0.005408 0.069000
v -0.016643 0.005408 0.021374
v -0.017190 0.003279 0.069000
v -0.017190 0.003279 0.021374
v -0.017465 0.001099 0.069000
v -0.017465 0.001099 0.021374
v -0.017465 -0.001099 0.069000
v -0.017465 -0.001099 0.021374
v -0.017190 -0.003279 0.069000
v -0.017190 -0.003279 0.021374
v -0.016643 -0.005408 0.069000
v -0.016643 -0.005408 0.021374
v -0.015834 -0.007451 0.069000
v -0.015834 -0.007451 0.021374
v -0.014776 -0.009377 0.069000
v -0.014776 -0.009377 0.021374
v -0.013484 -0.011155 0.069000
v -0.013484 -0.011155 0.021374
v -0.011980 -0.012757 0.069000
v -0.011980 -0.012757 0.021374
v -0.010286 -0.014158 0.069000
v -0.010286 -0.014158 0.021374
v -0.008431 -0.015335 0.069000
v -0.008431 -0.015335 0.021374
v -0.006442 -0.016271 0.069000
v -0.006442 -0.016271 0.021374
v -0.004352 -0.016950 0.069000
v -0.004352 -0.016950 0.021374
v -0.002193 -0.017362 0.069000
v -0.002193 -0.017362 0.021374
v 0.000000 -0.017500 0.069000
v 0.000000 -0.017500 0.021374
v 0.002193 -0.017362 0.069000
v 0.002193 -0.017362 0.021374
v 0.004352 -0.016950 0.069000
v 0.004352 -0.016950 0.021374
v 0.006442 -0.016271 0.069000
v 0.006442 -0.016271 0.021374
v 0.008431 -0.015335 0.069000
v 0.008431 -0.015335 0.021374
v 0.010286 -0.014158 0.069000
v 0.010286 -0.014158 0.021374
v 0.011980 -0.012757 0.069000
v 0.011980 -0.012757 0.021374
v 0.013484 -0.011155 0.069000
v 0.013484 -0.011155 0.021374
v 0.014776 -0.009377 0.069000
v 0.014776 -0.009377 0.021374
v 0.015834 -0.007451 0.069000
v 0.015834 -0.007451 0.021374
v 0.016643 -0.005408 0.069000
v 0.016643 -0.005408 0.021374
v 0.017190 -0.003279 0.069000
v 0.017190 -0.003279 0.021374
v 0.017465 -0.001099 0.069000
v 0.017465 -0.001099 0.021374
v 0.017465 0.001099 0.069000
v 0.017465 0.001099 0.021374
v 0.017190 0.003279 0.069000
v 0.017190 0.003279 0.021374
v 0.016643 0.005408 0.069000
v 0.016643 0.005408 0.021374
v 0.015834 0.007451 0.069000
v 0.015834 0.007451 0.021374
v 0.014776 0.009377 0.069000
v 0.014776 0.009377 0.021374
v 0.013484 0.011155 0.069000
v 0.013484 0.011155 0.021374
v 0.011980 0.012757 0.069000
v 0.011980 0.012757 0.021374
v 0.010286 0.014158 0.069000
v 0.010286 0.014158 0.021374
v 0.008431 0.015335 0.069000
v 0.008431 0.015335 0.021374
v 0.006442 0.016271 0.069000
v 0.006442 0.016271 0.021374
v 0.004352 0.016950 0.069000
v 0.004352 0.016950 0.021374
v 0.002193 0.017362 0.069000
v 0.002193 0.017362 0.021374
v -0.000000 0.000000 -0.069000
vn -0.0628 0.9980 -0.0000
vn -0.1874 0.9823 -0.0000
vn -0.3090 0.9511 -0.0000
vn -0.4258 0.9048 -0.0000
vn -0.5358 0.8443 -0.0000
vn -0.6374 0.7705 -0.0000
vn -0.7290 0.6845 -0.0000
vn -0.8090 0.5878 -0.0000
vn -0.8763 0.4818 -0.0000
vn -0.9298 0.3681 -0.0000
vn -0.9686 0.2487 -0.0000
vn -0.9921 0.1253 -0.0000
vn -1.0000 -0.0000 -0.0000
vn -0.9921 -0.1253 -0.0000
vn -0.9686 -0.2487 -0.0000
vn -0.9298 -0.3681 -0.0000
vn -0.8763 -0.4818 -0.0000
vn -0.8090 -0.5878 -0.0000
vn -0.7290 -0.6845 -0.0000
vn -0.6374 -0.7705 -0.0000
vn -0.5358 -0.8443 -0.0000
vn -0.4258 -0.9048 -0.0000
vn -0.3090 -0.9511 -0.0000
vn -0.1874 -0.9823 -0.0000
vn -0.0628 -0.9980 -0.0000
vn 0.0628 -0.9980 -0.0000
vn 0.1874 -0.9823 -0.0000
vn 0.3090 -0.9511 -0.0000
vn 0.4258 -0.9048 -0.0000
vn 0.5358 -0.8443 -0.0000
vn 0.6374 -0.7705 -0.0000
vn 0.7290 -0.6845 -0.0000
vn 0.8090 -0.5878 -0.0000
vn 0.8763 -0.4818 -0.0000
vn 0.9298 -0.3681 -0.0000
vn 0.9686 -0.2487 -0.0000
vn 0.9921 -0.1253 -0.0000
vn 1.0000 -0.0000 -0.0000
vn 0.9921 0.1253 -0.0000
vn 0.9686 0.2487 -0.0000
vn 0.9298 0.3681 -0.0000
vn 0.8763 0.4818 -0.0000
vn 0.8090 0.5878 -0.0000
vn 0.7290 0.6845 -0.0000
vn 0.6374 0.7705 -0.0000
vn 0.5358 0.8443 -0.0000
vn 0.4258 0.9048 -0.0000
vn 0.3090 0.9511 -0.0000
vn 0.1874 0.9823 -0.0000
vn 0.0628 0.9980 -0.0000
vn -0.0000 -0.0000 1.0000
vn -0.0616 0.9799 -0.1897
vn 0.0616 0.9799 -0.1897
vn 0.1840 0.9644 -0.1897
vn 0.3034 0.9338 -0.1897
vn 0.4180 0.8884 -0.1897
vn 0.5261 0.8290 -0.1897
vn 0.6258 0.7565 -0.1897
vn 0.7157 0.6721 -0.1897
vn 0.7943 0.5771 -0.1897
vn 0.8604 0.4730 -0.1897
vn 0.9129 0.3614 -0.1897
vn 0.9510 0.2442 -0.1897
vn 0.9741 0.1231 -0.1897
vn 0.9818 -0.0000 -0.1897
vn 0.9741 -0.1231 -0.1897
vn 0.9510 -0.2442 -0.1897
vn 0.9129 -0.3614 -0.1897
vn 0.8604 -0.4730 -0.1897
vn 0.7943 -0.5771 -0.1897
vn 0.7157 -0.6721 -0.1897
vn 0.6258 -0.7565 -0.1897
vn 0.5261 -0.8290 -0.1897
vn 0.4180 -0.8884 -0.1897
vn 0.3034 -0.9338 -0.1897
vn 0.1840 -0.9644 -0.1897
vn 0.0616 -0.9799 -0.1897
vn -0.0616 -0.9799 -0.1897
vn -0.1840 -0.9644 -0.1897
vn -0.3034 -0.9338 -0.1897
vn -0.4180 -0.8884 -0.1897
vn -0.5261 -0.8290 -0.1897
vn -0.6258 -0.7565 -0.1897
vn -0.7157 -0.6721 -0.1897
vn -0.7943 -0.5771 -0.1897
vn -0.8604 -0.4730 -0.1897
vn -0.9129 -0.3614 -0.1897
vn -0.9510 -0.2442 -0.1897
vn -0.9741 -0.1231 -0.1897
vn -0.9818 -0.0000 -0.1897
vn -0.9741 0.1231 -0.1897
vn -0.9510 0.2442 -0.1897
vn -0.9129 0.3614 -0.1897
vn -0.8604 0.4730 -0.1897
vn -0.7943 0.5771 -0.1897
vn -0.7157 0.6721 -0.1897
vn -0.6258 0.7565 -0.1897
vn -0.5261 0.8290 -0.1897
vn -0.4180 0.8884 -0.1897
vn -0.3034 0.9338 -0.1897
vn -0.1840 0.9644 -0.1897
vn -0.0001 -0.0000 1.0000
vn 0.0001 -0.0000 1.0000
vt 1.000000 1.000000
vt 0.980000 0.500000
vt 1.000000 0.500000
vt 0.980000 1.000000
vt 0.960000 0.500000
vt 0.960000 1.000000
vt 0.940000 0.500000
vt 0.940000 1.000000
vt 0.920000 0.500000
vt 0.920000 1.000000
vt 0.900000 0.500000
vt 0.900000 1.000000
vt 0.880000 0.500000
vt 0.880000 1.000000
vt 0.860000 0.500000
vt 0.860000 1.000000
vt 0.840000 0.500000
vt 0.840000 1.000000
vt 0.820000 0.500000
vt 0.820000 1.000000
vt 0.800000 0.500000
vt 0.800000 1.000000
vt 0.780000 0.500000
vt 0.780000 1.000000
vt 0.760000 0.500000
vt 0.740000 1.000000
vt 0.740000 0.500000
vt 0.720000 0.500000
vt 0.700000 1.000000
vt 0.700000 0.500000
vt 0.680000 0.500000
vt 0.680000 1.000000
vt 0.660000 0.500000
vt 0.660000 1.000000
vt 0.640000 0.500000
vt 0.640000 1.000000
vt 0.620000 0.500000
vt 0.620000 1.000000
vt 0.600000 0.500000
vt 0.600000 1.000000
vt 0.580000 0.500000
vt 0.580000 1.000000
vt 0.560000 0.500000
vt 0.560000 1.000000
vt 0.540000 0.500000
vt 0.540000 1.000000
vt 0.520000 0.500000
vt 0.520000 1.000000
vt 0.500000 0.500000
vt 0.500000 1.000000
vt 0.480000 0.500000
vt 0.480000 1.000000
vt 0.460000 0.500000
vt 0.460000 1.000000
vt 0.440000 0.500000
vt 0.440000 1.000000
vt 0.420000 0.500000
vt 0.420000 1.000000
vt 0.400000 0.500000
vt 0.400000 1.000000
vt 0.380000 0.500000
vt 0.380000 1.000000
vt 0.360000 0.500000
vt 0.360000 1.000000
vt 0.340000 0.500000
vt 0.340000 1.000000
vt 0.320000 0.500000
vt 0.320000 1.000000
vt 0.300000 0.500000
vt 0.300000 1.000000
vt 0.280000 0.500000
vt 0.280000 1.000000
vt 0.260000 0.500000
vt 0.260000 1.000000
vt 0.240000 0.500000
vt 0.240000 1.000000
vt 0.220000 0.500000
vt 0.220000 1.000000
vt 0.200000 0.500000
vt 0.200000 1.000000
vt 0.180000 0.500000
vt 0.180000 1.000000
vt 0.160000 0.500000
vt 0.160000 1.000000
vt 0.140000 0.500000
vt 0.140000 1.000000
vt 0.120000 0.500000
vt 0.120000 1.000000
vt 0.100000 0.500000
vt 0.100000 1.000000
vt 0.080000 0.500000
vt 0.080000 1.000000
vt 0.060000 0.500000
vt 0.060000 1.000000
vt 0.040000 0.500000
vt 0.040000 1.000000
vt 0.020000 0.500000
vt 0.020000 1.000000
vt 0.000000 0.500000
vt 0.838350 0.473146
vt 0.914291 0.075048
vt 0.521746 0.175836
vt 0.510000 1.000000
vt 0.720000 1.000000
vt 0.760000 1.000000
vt 0.000000 1.000000
vt 0.719920 0.488108
vt 0.750000 0.490000
vt 0.780080 0.488108
vt 0.809686 0.482460
vt 0.865621 0.460314
vt 0.891068 0.444164
vt 0.914291 0.424952
vt 0.934923 0.402982
vt 0.952639 0.378598
vt 0.967158 0.352187
vt 0.978254 0.324164
vt 0.985749 0.294972
vt 0.989526 0.265070
vt 0.989526 0.234930
vt 0.985749 0.205028
vt 0.978254 0.175836
vt 0.967158 0.147813
vt 0.952639 0.121402
vt 0.934923 0.097018
vt 0.891068 0.055836
vt 0.865621 0.039686
vt 0.838350 0.026854
vt 0.809686 0.017540
vt 0.780080 0.011892
vt 0.750000 0.010000
vt 0.719920 0.011892
vt 0.690314 0.017540
vt 0.661650 0.026854
vt 0.634379 0.039686
vt 0.608932 0.055836
vt 0.585709 0.075048
vt 0.565077 0.097018
vt 0.547361 0.121402
vt 0.532842 0.147813
vt 0.514251 0.205028
vt 0.510474 0.234930
vt 0.510474 0.265070
vt 0.514251 0.294972
vt 0.521746 0.324164
vt 0.532842 0.352187
vt 0.547361 0.378598
vt 0.565077 0.402982
vt 0.585709 0.424952
vt 0.608932 0.444164
vt 0.634379 0.460314
vt 0.661650 0.473146
vt 0.690314 0.482460
s 0
usemtl Material.001
f 2/1/1 3/2/1 1/3/1
f 4/4/2 5/5/2 3/2/2
f 6/6/3 7/7/3 5/5/3
f 8/8/4 9/9/4 7/7/4
f 10/10/5 11/11/5 9/9/5
f 12/12/6 13/13/6 11/11/6
f 14/14/7 15/15/7 13/13/7
f 16/16/8 17/17/8 15/15/8
f 18/18/9 19/19/9 17/17/9
f 20/20/10 21/21/10 19/19/10
f 22/22/11 23/23/11 21/21/11
f 24/24/12 25/25/12 23/23/12
f 25/25/13 28/26/13 27/27/13
f 28/26/14 29/28/14 27/27/14
f 29/28/15 32/29/15 31/30/15
f 32/29/16 33/31/16 31/30/16
f 34/32/17 35/33/17 33/31/17
f 36/34/18 37/35/18 35/33/18
f 38/36/19 39/37/19 37/35/19
f 40/38/20 41/39/20 39/37/20
f 42/40/21 43/41/21 41/39/21
f 44/42/22 45/43/22 43/41/22
f 46/44/23 47/45/23 45/43/23
f 48/46/24 49/47/24 47/45/24
f 50/48/25 51/49/25 49/47/25
f 52/50/26 53/51/26 51/49/26
f 54/52/27 55/53/27 53/51/27
f 56/54/28 57/55/28 55/53/28
f 58/56/29 59/57/29 57/55/29
f 60/58/30 61/59/30 59/57/30
f 62/60/31 63/61/31 61/59/31
f 64/62/32 65/63/32 63/61/32
f 66/64/33 67/65/33 65/63/33
f 68/66/34 69/67/34 67/65/34
f 70/68/35 71/69/35 69/67/35
f 72/70/36 73/71/36 71/69/36
f 74/72/37 75/73/37 73/71/37
f 76/74/38 77/75/38 75/73/38
f 78/76/39 79/77/39 77/75/39
f 80/78/40 81/79/40 79/77/40
f 82/80/41 83/81/41 81/79/41
f 84/82/42 85/83/42 83/81/42
f 86/84/43 87/85/43 85/83/43
f 88/86/44 89/87/44 87/85/44
f 90/88/45 91/89/45 89/87/45
f 92/90/46 93/91/46 91/89/46
f 94/92/47 95/93/47 93/91/47
f 96/94/48 97/95/48 95/93/48
f 98/96/49 99/97/49 97/95/49
f 100/98/50 1/99/50 99/97/50
f 7/100/51 39/101/51 71/102/51
f 4/4/52 2/1/52 101/103/52
f 2/1/53 100/98/53 101/103/53
f 100/98/54 98/96/54 101/103/54
f 98/96/55 96/94/55 101/103/55
f 96/94/56 94/92/56 101/103/56
f 94/92/57 92/90/57 101/103/57
f 92/90/58 90/88/58 101/103/58
f 90/88/59 88/86/59 101/103/59
f 88/86/60 86/84/60 101/103/60
f 86/84/61 84/82/61 101/103/61
f 84/82/62 82/80/62 101/103/62
f 82/80/63 80/78/63 101/103/63
f 80/78/64 78/76/64 101/103/64
f 78/76/65 76/74/65 101/103/65
f 76/74/66 74/72/66 101/103/66
f 74/72/67 72/70/67 101/103/67
f 72/70/68 70/68/68 101/103/68
f 70/68/69 68/66/69 101/103/69
f 68/66/70 66/64/70 101/103/70
f 66/64/71 64/62/71 101/103/71
f 64/62/72 62/60/72 101/103/72
f 62/60/73 60/58/73 101/103/73
f 60/58/74 58/56/74 101/103/74
f 58/56/75 56/54/75 101/103/75
f 56/54/76 54/52/76 101/103/76
f 54/52/77 52/50/77 101/103/77
f 52/50/78 50/48/78 101/103/78
f 50/48/79 48/46/79 101/103/79
f 48/46/80 46/44/80 101/103/80
f 46/44/81 44/42/81 101/103/81
f 44/42/82 42/40/82 101/103/82
f 42/40/83 40/38/83 101/103/83
f 40/38/84 38/36/84 101/103/84
f 38/36/85 36/34/85 101/103/85
f 36/34/86 34/32/86 101/103/86
f 34/32/87 32/29/87 101/103/87
f 32/29/88 30/104/88 101/103/88
f 30/104/89 28/26/89 101/103/89
f 28/26/90 26/105/90 101/103/90
f 26/105/91 24/24/91 101/103/91
f 24/24/92 22/22/92 101/103/92
f 22/22/93 20/20/93 101/103/93
f 20/20/94 18/18/94 101/103/94
f 18/18/95 16/16/95 101/103/95
f 16/16/96 14/14/96 101/103/96
f 14/14/97 12/12/97 101/103/97
f 12/12/98 10/10/98 101/103/98
f 10/10/99 8/8/99 101/103/99
f 8/8/100 6/6/100 101/103/100
f 6/6/101 4/4/101 101/103/101
f 2/1/1 4/4/1 3/2/1
f 4/4/2 6/6/2 5/5/2
f 6/6/3 8/8/3 7/7/3
f 8/8/4 10/10/4 9/9/4
f 10/10/5 12/12/5 11/11/5
f 12/12/6 14/14/6 13/13/6
f 14/14/7 16/16/7 15/15/7
f 16/16/8 18/18/8 17/17/8
f 18/18/9 20/20/9 19/19/9
f 20/20/10 22/22/10 21/21/10
f 22/22/11 24/24/11 23/23/11
f 24/24/12 26/105/12 25/25/12
f 25/25/13 26/105/13 28/26/13
f 28/26/14 30/104/14 29/28/14
f 29/28/15 30/104/15 32/29/15
f 32/29/16 34/32/16 33/31/16
f 34/32/17 36/34/17 35/33/17
f 36/34/18 38/36/18 37/35/18
f 38/36/19 40/38/19 39/37/19
f 40/38/20 42/40/20 41/39/20
f 42/40/21 44/42/21 43/41/21
f 44/42/22 46/44/22 45/43/22
f 46/44/23 48/46/23 47/45/23
f 48/46/24 50/48/24 49/47/24
f 50/48/25 52/50/25 51/49/25
f 52/50/26 54/52/26 53/51/26
f 54/52/27 56/54/27 55/53/27
f 56/54/28 58/56/28 57/55/28
f 58/56/29 60/58/29 59/57/29
f 60/58/30 62/60/30 61/59/30
f 62/60/31 64/62/31 63/61/31
f 64/62/32 66/64/32 65/63/32
f 66/64/33 68/66/33 67/65/33
f 68/66/34 70/68/34 69/67/34
f 70/68/35 72/70/35 71/69/35
f 72/70/36 74/72/36 73/71/36
f 74/72/37 76/74/37 75/73/37
f 76/74/38 78/76/38 77/75/38
f 78/76/39 80/78/39 79/77/39
f 80/78/40 82/80/40 81/79/40
f 82/80/41 84/82/41 83/81/41
f 84/82/42 86/84/42 85/83/42
f 86/84/43 88/86/43 87/85/43
f 88/86/44 90/88/44 89/87/44
f 90/88/45 92/90/45 91/89/45
f 92/90/46 94/92/46 93/91/46
f 94/92/47 96/94/47 95/93/47
f 96/94/48 98/96/48 97/95/48
f 98/96/49 100/98/49 99/97/49
f 100/98/50 2/106/50 1/99/50
f 99/107/51 1/108/51 3/109/51
f 3/109/51 5/110/51 7/100/51
f 7/100/51 9/111/51 11/112/51
f 11/112/51 13/113/51 15/114/51
f 15/114/51 17/115/51 19/116/51
f 19/116/51 21/117/51 23/118/51
f 23/118/102 25/119/102 27/120/102
f 27/120/51 29/121/51 31/122/51
f 31/122/51 33/123/51 35/124/51
f 35/124/51 37/125/51 39/101/51
f 39/101/51 41/126/51 43/127/51
f 43/127/51 45/128/51 47/129/51
f 47/129/51 49/130/51 51/131/51
f 51/131/51 53/132/51 55/133/51
f 55/133/51 57/134/51 59/135/51
f 59/135/51 61/136/51 63/137/51
f 63/137/51 65/138/51 67/139/51
f 67/139/51 69/140/51 71/102/51
f 71/102/51 73/141/51 75/142/51
f 75/142/103 77/143/103 79/144/103
f 79/144/51 81/145/51 83/146/51
f 83/146/51 85/147/51 87/148/51
f 87/148/51 89/149/51 91/150/51
f 91/150/51 93/151/51 95/152/51
f 95/152/51 97/153/51 99/107/51
f 99/107/51 3/109/51 7/100/51
f 7/100/51 11/112/51 15/114/51
f 15/114/51 19/116/51 23/118/51
f 23/118/51 27/120/51 31/122/51
f 31/122/51 35/124/51 39/101/51
f 39/101/51 43/127/51 47/129/51
f 47/129/51 51/131/51 55/133/51
f 55/133/51 59/135/51 63/137/51
f 63/137/51 67/139/51 71/102/51
f 71/102/51 75/142/51 79/144/51
f 79/144/51 83/146/51 87/148/51
f 87/148/51 91/150/51 95/152/51
f 95/152/51 99/107/51 7/100/51
f 7/100/51 15/114/51 23/118/51
f 23/118/51 31/122/51 39/101/51
f 39/101/51 47/129/51 55/133/51
f 55/133/51 63/137/51 71/102/51
f 71/102/51 79/144/51 87/148/51
f 87/148/51 95/152/51 7/100/51
f 7/100/51 23/118/51 39/101/51
f 39/101/51 55/133/51 71/102/51
f 71/102/51 87/148/51 7/100/51
